
<svg viewBox="0 0 1024 1024.0003" xmlns="http://www.w3.org/2000/svg"><path d="M512 970.667c-29.867 0-60.16-11.52-82.773-34.133l-72.96-72.107c-17.92-17.92-42.667-27.733-67.84-27.733H256c-88.32 0-160-71.253-160-158.72V212.48c0-87.467 71.68-158.72 160-158.72h512c88.32 0 160 71.253 160 158.72v465.494c0 87.467-71.68 158.72-160 158.72h-32.427c-25.173 0-49.92 10.24-67.84 27.733l-72.96 72.107c-22.613 22.613-52.907 34.133-82.773 34.133zM256 117.333c-52.907 0-96 42.665-96 94.72v465.494c0 52.48 43.093 94.72 96 94.72h32.427c42.24 0 83.2 17.067 113.066 46.507l72.96 72.107c20.907 20.48 54.613 20.48 75.52 0l72.96-72.106C652.8 789.334 693.76 772.267 736 772.267h32c52.907 0 96-42.667 96-94.72V212.052c0-52.48-43.093-94.72-96-94.72H256zM511.99 672c-7.68 0-15.36-1.28-22.186-3.413-56.32-19.2-201.388-104.107-201.388-262.826 0-76.8 62.293-139.093 138.668-139.093 31.147 0 61.013 10.667 85.333 29.44 24.32-18.773 54.187-29.44 85.333-29.44 76.373 0 138.667 62.294 138.667 139.094 0 158.72-145.493 243.627-201.387 262.827-7.68 2.133-15.36 3.413-23.04 3.413zm-85.334-341.333c-40.96 0-74.667 33.707-74.667 75.094 0 120.747 117.33 188.16 158.29 202.24h3.418c41.387-14.506 157.862-81.92 157.862-201.81 0-41.388-33.28-75.095-74.667-75.095-23.467 0-45.222 11.094-59.73 29.867-11.946 16.213-39.252 16.213-51.2 0-13.652-19.2-35.412-30.294-59.307-30.294z"/></svg>