<?xml version="1.0" encoding="utf-8"?>
<svg viewBox="6.681 96.087 13.665 13.665" width="341.625px" height="341.625px" xmlns="http://www.w3.org/2000/svg">
  <defs/>
  <g transform="matrix(1, 0, 0, 1, -1.7763568394002505e-15, 0)">
    <g transform="matrix(1, 0, 0, 1, -2.407955, 88.46302)">
      <rect x="14.774" y="14.269" width="6.303" height="0.487" style="fill: rgb(255, 255, 255);" rx="0.243" ry="0.243"/>
      <rect x="13.961" y="17.898" width="6.303" height="0.487" style="fill: rgb(255, 255, 255);" rx="0.243" ry="0.243"/>
      <rect x="13.961" y="10.592" width="6.303" height="0.487" style="fill: rgb(255, 255, 255);" rx="0.243" ry="0.243"/>
      <ellipse style="fill: rgb(255, 255, 255);" cx="12.479" cy="10.85" rx="0.695" ry="0.695"/>
      <path d="M 13.953 14.232 C 13.128 14.055 12.95 13.877 12.773 13.052 C 12.743 12.903 12.626 12.815 12.479 12.815 C 12.331 12.815 12.212 12.903 12.183 13.052 C 12.007 13.877 11.829 14.055 11.004 14.232 C 10.855 14.26 10.767 14.379 10.767 14.526 C 10.767 14.674 10.855 14.791 11.004 14.822 C 11.829 14.998 12.007 15.176 12.183 16.001 C 12.212 16.15 12.331 16.238 12.479 16.238 C 12.626 16.238 12.743 16.15 12.773 16.001 C 12.95 15.176 13.128 14.998 13.953 14.822 C 14.102 14.791 14.19 14.674 14.19 14.526 C 14.19 14.379 14.071 14.26 13.953 14.232 Z" style="fill: rgb(255, 255, 255);"/>
      <ellipse style="fill: rgb(255, 255, 255);" cx="12.479" cy="18.222" rx="0.695" ry="0.695"/>
    </g>
  </g>
</svg>