<svg viewBox="0 0 1024 1024.0003" xmlns="http://www.w3.org/2000/svg"><path d="M512.038 604.582c-90.882 0-165.122-73.813-165.122-165.12 0-91.305 74.24-164.692 165.122-164.692 90.88 0 165.12 73.813 165.12 165.118 0 91.307-74.24 164.693-165.12 164.693zm0-265.81c-55.467 0-101.122 45.226-101.122 101.117 0 55.892 45.228 101.12 101.122 101.12s101.12-45.228 101.12-101.12c0-55.893-45.653-101.12-101.12-101.12zm-.05 632.32c-63.148 0-126.72-23.892-176.215-71.252-125.867-121.173-264.96-314.453-212.48-544.427 47.36-208.64 229.547-302.08 388.694-302.08h.427c159.147 0 341.333 93.44 388.693 302.507 52.053 229.973-87.04 422.827-212.907 544-49.493 47.36-113.067 71.253-176.213 71.253zm0-853.76c-124.16 0-283.735 66.134-325.975 252.16-46.08 200.96 80.213 374.188 194.56 483.84 73.814 71.254 189.44 71.254 263.254 0 113.92-109.652 240.213-282.88 194.987-483.84-42.667-186.026-202.667-252.16-326.827-252.16z"/></svg>