<svg viewBox="0 0 1024 1024.0003" xmlns="http://www.w3.org/2000/svg"><path d="M725.333 906.667H298.666c-155.733 0-245.333-89.6-245.333-245.333V362.667c0-155.733 89.6-245.333 245.333-245.333h426.667c155.733 0 245.333 89.6 245.333 245.333v298.667c0 155.733-89.6 245.333-245.333 245.333zM298.667 181.333c-122.027 0-181.333 59.307-181.333 181.333v298.667c0 122.027 59.307 181.333 181.333 181.333h426.667c122.027 0 181.333-59.307 181.333-181.333V362.666c0-122.027-59.307-181.333-181.333-181.333H298.667zM511.95 549.12c-35.84 0-72.108-11.093-99.84-33.707L278.56 408.745c-13.653-11.093-16.213-31.147-5.12-44.8s31.147-16.213 44.8-5.12l133.546 106.668c32.427 26.027 87.467 26.027 119.893 0L705.23 358.825c13.653-11.093 34.133-8.96 44.8 5.12 11.093 13.653 8.96 34.133-5.12 44.8L611.36 515.413c-27.306 22.613-63.572 33.707-99.412 33.707z"/></svg>