<svg viewBox="0 0 1024 1024.0003" xmlns="http://www.w3.org/2000/svg"><path d="M640 970.667H384c-188.16 0-245.333-57.173-245.333-245.333V298.667c0-188.16 57.173-245.333 245.333-245.333h256c188.16 0 245.333 57.173 245.333 245.333v426.667c0 188.16-57.173 245.333-245.333 245.333zM384 117.333c-152.747 0-181.333 29.013-181.333 181.333v426.667c0 152.32 28.587 181.333 181.333 181.333h256c152.747 0 181.333-29.013 181.333-181.333V298.666c0-152.32-28.587-181.333-181.333-181.333H384zm213.333 149.334H426.666c-17.493 0-32-14.507-32-32s14.507-32 32-32h170.667c17.493 0 32 14.507 32 32s-14.507 32-32 32zM512.01 847.36c-54.188 0-98.134-43.947-98.134-98.133s43.947-98.133 98.133-98.133c54.186 0 98.132 43.947 98.132 98.133s-43.947 98.133-98.133 98.133zm0-132.693c-18.774 0-34.134 15.36-34.134 34.133s15.36 34.133 34.133 34.133c18.772 0 34.132-15.36 34.132-34.133s-15.36-34.133-34.133-34.133z"/></svg>