<?xml version="1.0" encoding="utf-8"?>
<svg viewBox="57.644 139.276 9.716 1.406" width="242.9px" height="35.15px" xmlns="http://www.w3.org/2000/svg">
  <defs/>
  <g transform="matrix(1, 0, 0, 1.106651, -0.600018, -15.025115)" style="">
    <g transform="matrix(1.176471, 0, 0, 1.176471, -10.383888, -24.608816)">
      <path d="M 59.652 140.449 L 59.063 140.449 L 59.063 139.498 L 59.19 139.498 L 59.19 140.336 L 59.652 140.336 L 59.652 140.449 Z M 60.295 140.449 L 60.168 140.449 L 60.168 139.498 L 60.295 139.498 L 60.295 140.449 Z M 61.231 140.466 C 61.097 140.466 60.996 140.435 60.93 140.375 C 60.863 140.314 60.828 140.237 60.825 140.143 L 60.946 140.143 C 60.952 140.215 60.982 140.267 61.034 140.301 C 61.088 140.335 61.151 140.352 61.225 140.352 C 61.296 140.352 61.353 140.337 61.396 140.309 C 61.439 140.28 61.46 140.24 61.46 140.19 C 61.46 140.138 61.438 140.1 61.393 140.076 C 61.349 140.052 61.273 140.029 61.164 140.006 C 61.055 139.982 60.977 139.95 60.929 139.909 C 60.881 139.868 60.857 139.813 60.857 139.745 C 60.857 139.668 60.889 139.605 60.95 139.555 C 61.013 139.506 61.095 139.481 61.197 139.481 C 61.303 139.481 61.39 139.506 61.456 139.555 C 61.522 139.606 61.556 139.676 61.56 139.767 L 61.438 139.767 C 61.425 139.652 61.347 139.594 61.201 139.594 C 61.131 139.594 61.077 139.608 61.038 139.634 C 61 139.66 60.981 139.696 60.981 139.739 C 60.981 139.779 60.996 139.808 61.027 139.828 C 61.058 139.849 61.115 139.868 61.2 139.886 C 61.286 139.905 61.352 139.924 61.402 139.942 C 61.452 139.96 61.494 139.988 61.53 140.027 C 61.565 140.064 61.583 140.116 61.583 140.181 C 61.583 140.262 61.55 140.33 61.485 140.384 C 61.42 140.438 61.335 140.466 61.231 140.466 Z M 62.785 139.611 L 62.47 139.611 L 62.47 140.449 L 62.343 140.449 L 62.343 139.611 L 62.031 139.611 L 62.031 139.498 L 62.785 139.498 L 62.785 139.611 Z" style="fill: rgb(140, 140, 140);"/>
      <path d="M 63.414 140.449 L 63.288 140.449 L 63.288 139.498 L 63.414 139.498 L 63.414 140.449 Z M 64.661 140.449 L 63.908 140.449 L 63.908 140.331 L 64.5 139.611 L 63.963 139.611 L 63.963 139.498 L 64.644 139.498 L 64.644 139.615 L 64.053 140.336 L 64.661 140.336 L 64.661 140.449 Z M 65.863 140.449 L 65.153 140.449 L 65.153 139.498 L 65.84 139.498 L 65.84 139.611 L 65.279 139.611 L 65.279 139.901 L 65.804 139.901 L 65.804 140.014 L 65.279 140.014 L 65.279 140.336 L 65.863 140.336 L 65.863 140.449 Z" style="fill: rgb(0, 0, 0);"/>
    </g>
  </g>
</svg>