<?xml version="1.0" encoding="utf-8"?>
<svg viewBox="0 0 24 24" width="24px" height="24px" xmlns="http://www.w3.org/2000/svg">
    <path d="M 2 5.333 C 2 4.875 2.375 4.5 2.833 4.5 L 17 4.5 C 17.458 4.5 17.833 4.875 17.833 5.333 C 17.833 5.792 17.458 6.167 17 6.167 L 2.833 6.167 C 2.375 6.167 2 5.792 2 5.333 Z M 17 17.833 L 2.833 17.833 C 2.375 17.833 2 18.208 2 18.667 C 2 19.125 2.375 19.5 2.833 19.5 L 17 19.5 C 17.458 19.5 17.833 19.125 17.833 18.667 C 17.833 18.208 17.458 17.833 17 17.833 Z M 21.167 11.167 L 7 11.167 C 6.542 11.167 6.167 11.542 6.167 12 C 6.167 12.458 6.542 12.833 7 12.833 L 21.167 12.833 C 21.625 12.833 22 12.458 22 12 C 22 11.542 21.625 11.167 21.167 11.167 Z"/>
</svg>